<?xml version="1.0" encoding="UTF-8" standalone="no"?>
<svg xmlns="http://www.w3.org/2000/svg" viewBox="-600 -600 1000 1000" text-rendering="geometricPrecision" shape-rendering="geometricPrecision">
  <rect x="-600" y="-600" width="1000" height="1000" fill="#ffffff"/>
  <g transform="translate(-481.057, -489.3737)">
    <path fill="#ffffff" d="M180,746.03C180,746.65,9.79,747,9.79,747C9.79,747,180,745.5,180,746.03z"/>
    <path fill="#4fa091" d="M-118.9324,-110.6163L881.1276,-110.779L881.4529,889.4437L-119.0951,889.4437L-118.9324,-110.6163zM180,746.03C180,745.5,241.08,587.75,240.54,587.21C239.76,586.42,160.35,605,156.97,605C154.45,605,250.9108,306.5358,251.3208,308.1458C257.7723,308.0924,329.0739,495.3686,330.7139,498.1686C331.3839,499.3086,291.0173,536.7598,291.0173,537.5398C291.0173,539.1498,378.91,633,380.5,633C382.09,633,470.9533,539.4752,470.9533,537.8652C470.9533,537.0852,430.6059,498.0059,430.6059,498.0059L510.6498,307.8204C510.6498,307.8204,604.8835,600.3288,605.9135,604.8788C606.5535,607.7288,520.13,586.54,519.42,587.24C519.18,587.49,579.95,747,579.95,747L751.16,747C751.16,747,521.39,11,520.97,11C520.6086,11,381.9709,379.8984,381.8161,380.3213C379.7961,385.8813,239.62,9.64,239.62,9.64L9.79,747C9.79,747,180,746.65,180,746.03z"/>
  </g>
</svg>